# xmcd
#
# Track frame offsets:
#	150
#	16968
#	30116
#	45494
#	59609
#	74083
#	87434
#	102110
#	115743
#	131748
#	147983
#	162207
#	177281
#	194449
#	209496
#	227143
#	245225
#	258360
#	273685
#	288463
#
# Disc length: 4028 seconds
#
# Revision: 1
# Processed by: cddbd v1.5PL3 Copyright (c) Steve Scherf et al.
# Submitted via: audiograbber 1.83.01
#
DISCID=310fba14
DTITLE=Various Artist - Энергия 2. (2004)
DYEAR=1900
DGENRE=
TTITLE0=Сергей Жуков and Ева Польна.. - Полечу за тобой.
TTITLE1=Звери vs. Triplex. - Все, что касается. (Rmx)
TTITLE2=Гости из будущего. - Грустные сказки.
TTITLE3=Ольга Орлова. - Выше неба.
TTITLE4=Виа Гра. - Не надо. (Dance Mix)
TTITLE5=Пропаганда. - Супер-детка.
TTITLE6=Карт Бланш. - Юля.
TTITLE7=Саша Project. - Белое платье.
TTITLE8=Чай вдвоем vs. NeoMaster. - Он не разлюбит. (Rmx)
TTITLE9=Стрелки. - Ты далеко.
TTITLE10=Dj Грув. - Служебный роман.
TTITLE11=Планка. - Просто танцуй.
TTITLE12=Таня Буланова. - Вот такие дела. (Rmx)
TTITLE13=Губы. - Стриптиз.
TTITLE14=Непара vs. NeoMaster. - Другая причина. (Rmx)
TTITLE15=МегаBoom! - Странные танцы 2004.
TTITLE16=Ночной патруль. - Одиночество. (Rmx 2004)
TTITLE17=Вячеслав Бутусов and Ю-Питер. - Песня идущего домой. (Rmx Dj Skydreamer)
TTITLE18=Светлана Владимирская. - Мальчик мой 2004.
TTITLE19=Андрей Губин. - Путин-супер-ди-джей. (Танцуем до утра)
EXTD=
EXTT0=
EXTT1=
EXTT2=
EXTT3=
EXTT4=
EXTT5=
EXTT6=
EXTT7=
EXTT8=
EXTT9=
EXTT10=
EXTT11=
EXTT12=
EXTT13=
EXTT14=
EXTT15=
EXTT16=
EXTT17=
EXTT18=
EXTT19=
PLAYORDER=
